<svg width="366" height="365" viewBox="0 0 366 365" fill="none" xmlns="http://www.w3.org/2000/svg">
<path d="M13.88 352.12C22.8409 361.081 34.04 364.999 45.802 364.999C57.564 364.999 68.763 360.519 77.724 352.12L183.004 246.28L288.284 351.56C297.245 360.521 308.444 364.439 320.206 364.439C331.968 364.439 343.167 359.959 352.128 351.56C369.487 334.201 369.487 305.638 352.128 288.279L246.288 182.999L351.568 77.719C368.927 60.36 368.927 31.797 351.568 14.438C334.209 -2.92098 305.646 -2.92098 288.287 14.438L183.007 119.718L77.727 13.878C60.368 -3.48099 31.805 -3.48099 14.446 13.878C-2.91299 31.237 -2.91299 59.8 14.446 77.159L119.726 182.999L13.886 288.279C-3.47299 306.197 -3.47299 334.197 13.886 352.119L13.88 352.12Z" fill="black"/>
</svg>
